<svg xmlns="http://www.w3.org/2000/svg" width="1640" height="948" viewBox="0 0 1640 948"><defs><style>.title{font:700 34px Georgia, serif; fill:#ffffff;}.subtitle{font:400 16px Georgia, serif; fill:#e9f1f7;}.section{font:700 18px Georgia, serif; fill:#0f3d5e;}.metric-label{font:600 12px Arial, sans-serif; fill:#5f6b7a;}.metric-value{font:700 24px Arial, sans-serif; fill:#0f3d5e;}.body{font:400 13px Arial, sans-serif; fill:#112036;}.small{font:400 12px Arial, sans-serif; fill:#5f6b7a;}.table-head{font:700 12px Arial, sans-serif; fill:#0f3d5e;}.table-cell{font:400 12px Arial, sans-serif; fill:#112036;}</style></defs><rect x="0" y="0" width="1640" height="948" fill="#f7f3ea"/><rect x="24" y="24" rx="24" ry="24" width="1592" height="128" fill="#0f3d5e"/><text x="52" y="74" class="title">Painel de Revisao Tecnica por Atipicidade</text><text x="52" y="106" class="subtitle">Quanto maior a probabilidade de "Nao/Atipico", maior o alerta para revisao tecnica da empresa que recebeu o beneficio.</text><text x="52" y="132" class="subtitle">Fonte: empresas_beneficio_demo.csv</text><rect x="24" y="176" rx="20" ry="20" width="380" height="96" fill="#ffffff" stroke="#d0d5dd"/><text x="44" y="206" class="metric-label">Empresas na fila</text><text x="44" y="244" class="metric-value">12</text><rect x="422" y="176" rx="20" ry="20" width="380" height="96" fill="#ffffff" stroke="#d0d5dd"/><text x="442" y="206" class="metric-label">Beneficio total</text><text x="442" y="244" class="metric-value">R$ 42.650.000,00</text><rect x="820" y="176" rx="20" ry="20" width="380" height="96" fill="#ffffff" stroke="#d0d5dd"/><text x="840" y="206" class="metric-label">Prob. media de Nao/Atipico</text><text x="840" y="244" class="metric-value">61,41%</text><rect x="1218" y="176" rx="20" ry="20" width="380" height="96" fill="#ffffff" stroke="#d0d5dd"/><text x="1238" y="206" class="metric-label">Fila alto/medio/baixo</text><text x="1238" y="244" class="metric-value">5 / 4 / 3</text><text x="24" y="318" class="section">Fluxo de uso</text><text x="24" y="342" class="body">1. Carregar o lote | 2. Pontuar a probabilidade de "Nao/Atipico" | 3. Gerar fila de alerta alto, medio e baixo.</text><rect x="24" y="360" rx="18" ry="18" width="380" height="96" fill="#fef3f2" stroke="#b42318" stroke-width="2"/><text x="44" y="392" class="section" fill="#b42318">Alerta alto</text><text x="44" y="418" class="body">5 empresas | R$ 8.600.000,00</text><text x="44" y="440" class="small">Prob. media de Nao/Atipico: 89,78%</text><rect x="422" y="360" rx="18" ry="18" width="380" height="96" fill="#fffaeb" stroke="#b54708" stroke-width="2"/><text x="442" y="392" class="section" fill="#b54708">Alerta médio</text><text x="442" y="418" class="body">4 empresas | R$ 19.600.000,00</text><text x="442" y="440" class="small">Prob. media de Nao/Atipico: 68,43%</text><rect x="820" y="360" rx="18" ry="18" width="380" height="96" fill="#ecfdf3" stroke="#027a48" stroke-width="2"/><text x="840" y="392" class="section" fill="#027a48">Alerta baixo</text><text x="840" y="418" class="body">3 empresas | R$ 14.450.000,00</text><text x="840" y="440" class="small">Prob. media de Nao/Atipico: 4,79%</text><rect x="24" y="500" rx="18" ry="18" width="1592" height="424" fill="#ffffff" stroke="#d0d5dd"/><text x="44" y="530" class="section">Tabela operacional</text><line x1="40" y1="574" x2="1596" y2="574" stroke="#d0d5dd"/><text x="44" y="564" class="table-head">Fila</text><text x="110" y="564" class="table-head">Empresa</text><text x="330" y="564" class="table-head">CNAE</text><text x="470" y="564" class="table-head">Atividade</text><text x="1010" y="564" class="table-head">Prob. Nao/Atipico</text><text x="1225" y="564" class="table-head">Alerta</text><text x="1410" y="564" class="table-head">Beneficio</text><rect x="36" y="568" width="1568" height="42" fill="#fef3f2" opacity="0.95"/><text x="44" y="592" class="table-cell">1</text><text x="110" y="592" class="table-cell">Casa das Cores Varejo Ltda</text><text x="330" y="592" class="table-cell">4744001</text><text x="470" y="592" class="table-cell">Comércio varejista de tintas e materiais para pintura</text><text x="1010" y="592" class="table-cell">95,60%</text><text x="1225" y="592" class="table-cell">Alerta alto</text><text x="1410" y="592" class="table-cell">R$ 890.000,00</text><line x1="40" y1="602" x2="1596" y2="602" stroke="#eaecf0"/><rect x="36" y="612" width="1568" height="42" fill="#fef3f2" opacity="0.95"/><text x="44" y="636" class="table-cell">2</text><text x="110" y="636" class="table-cell">Nexus Suporte Digital Ltda</text><text x="330" y="636" class="table-cell">6209100</text><text x="470" y="636" class="table-cell">Suporte técnico, manutenção e outros serviços em tecnologia da...</text><text x="1010" y="636" class="table-cell">94,40%</text><text x="1225" y="636" class="table-cell">Alerta alto</text><text x="1410" y="636" class="table-cell">R$ 2.380.000,00</text><line x1="40" y1="646" x2="1596" y2="646" stroke="#eaecf0"/><rect x="36" y="656" width="1568" height="42" fill="#fef3f2" opacity="0.95"/><text x="44" y="680" class="table-cell">3</text><text x="110" y="680" class="table-cell">Infra TI Consult S.A.</text><text x="330" y="680" class="table-cell">6204000</text><text x="470" y="680" class="table-cell">Consultoria em tecnologia da informação</text><text x="1010" y="680" class="table-cell">91,83%</text><text x="1225" y="680" class="table-cell">Alerta alto</text><text x="1410" y="680" class="table-cell">R$ 1.450.000,00</text><line x1="40" y1="690" x2="1596" y2="690" stroke="#eaecf0"/><rect x="36" y="700" width="1568" height="42" fill="#fef3f2" opacity="0.95"/><text x="44" y="724" class="table-cell">4</text><text x="110" y="724" class="table-cell">Precision Contábil S.A.</text><text x="330" y="724" class="table-cell">6920601</text><text x="470" y="724" class="table-cell">Atividades de contabilidade</text><text x="1010" y="724" class="table-cell">85,33%</text><text x="1225" y="724" class="table-cell">Alerta alto</text><text x="1410" y="724" class="table-cell">R$ 760.000,00</text><line x1="40" y1="734" x2="1596" y2="734" stroke="#eaecf0"/><rect x="36" y="744" width="1568" height="42" fill="#fef3f2" opacity="0.95"/><text x="44" y="768" class="table-cell">5</text><text x="110" y="768" class="table-cell">AgroViva Brasil Comercial Ltda</text><text x="330" y="768" class="table-cell">4623199</text><text x="470" y="768" class="table-cell">Comércio atacadista de animais vivos não especificados anteriormente</text><text x="1010" y="768" class="table-cell">81,75%</text><text x="1225" y="768" class="table-cell">Alerta alto</text><text x="1410" y="768" class="table-cell">R$ 3.120.000,00</text><line x1="40" y1="778" x2="1596" y2="778" stroke="#eaecf0"/><rect x="36" y="788" width="1568" height="42" fill="#fffaeb" opacity="0.95"/><text x="44" y="812" class="table-cell">6</text><text x="110" y="812" class="table-cell">EcoFlux Resíduos Ltda</text><text x="330" y="812" class="table-cell">3821100</text><text x="470" y="812" class="table-cell">Tratamento e disposição de resíduos não perigosos</text><text x="1010" y="812" class="table-cell">70,33%</text><text x="1225" y="812" class="table-cell">Alerta médio</text><text x="1410" y="812" class="table-cell">R$ 2.950.000,00</text><line x1="40" y1="822" x2="1596" y2="822" stroke="#eaecf0"/><rect x="36" y="832" width="1568" height="42" fill="#fffaeb" opacity="0.95"/><text x="44" y="856" class="table-cell">7</text><text x="110" y="856" class="table-cell">Energia Grid Trading Ltda</text><text x="330" y="856" class="table-cell">3513100</text><text x="470" y="856" class="table-cell">Comércio atacadista de energia elétrica</text><text x="1010" y="856" class="table-cell">69,15%</text><text x="1225" y="856" class="table-cell">Alerta médio</text><text x="1410" y="856" class="table-cell">R$ 5.600.000,00</text><line x1="40" y1="866" x2="1596" y2="866" stroke="#eaecf0"/><rect x="36" y="876" width="1568" height="42" fill="#fffaeb" opacity="0.95"/><text x="44" y="900" class="table-cell">8</text><text x="110" y="900" class="table-cell">LinhaCom Telecom Ltda</text><text x="330" y="900" class="table-cell">4221903</text><text x="470" y="900" class="table-cell">Construção de linhas de telecomunicações</text><text x="1010" y="900" class="table-cell">67,27%</text><text x="1225" y="900" class="table-cell">Alerta médio</text><text x="1410" y="900" class="table-cell">R$ 4.200.000,00</text><line x1="40" y1="910" x2="1596" y2="910" stroke="#eaecf0"/><rect x="36" y="920" width="1568" height="42" fill="#fffaeb" opacity="0.95"/><text x="44" y="944" class="table-cell">9</text><text x="110" y="944" class="table-cell">TeleRede Projetos S.A.</text><text x="330" y="944" class="table-cell">4221901</text><text x="470" y="944" class="table-cell">Construção de redes de telecomunicações</text><text x="1010" y="944" class="table-cell">66,97%</text><text x="1225" y="944" class="table-cell">Alerta médio</text><text x="1410" y="944" class="table-cell">R$ 6.850.000,00</text><line x1="40" y1="954" x2="1596" y2="954" stroke="#eaecf0"/><rect x="36" y="964" width="1568" height="42" fill="#ecfdf3" opacity="0.95"/><text x="44" y="988" class="table-cell">10</text><text x="110" y="988" class="table-cell">Rodovia Forte Engenharia S.A.</text><text x="330" y="988" class="table-cell">4211101</text><text x="470" y="988" class="table-cell">Construção de rodovias e ferrovias (exceto obras de arte especiais)</text><text x="1010" y="988" class="table-cell">5,07%</text><text x="1225" y="988" class="table-cell">Alerta baixo</text><text x="1410" y="988" class="table-cell">R$ 8.900.000,00</text><line x1="40" y1="998" x2="1596" y2="998" stroke="#eaecf0"/><rect x="36" y="1008" width="1568" height="42" fill="#ecfdf3" opacity="0.95"/><text x="44" y="1032" class="table-cell">11</text><text x="110" y="1032" class="table-cell">Alfa Imper Engenharia Ltda</text><text x="330" y="1032" class="table-cell">4399104</text><text x="470" y="1032" class="table-cell">Serviços de impermeabilização em obras de engenharia civil</text><text x="1010" y="1032" class="table-cell">4,68%</text><text x="1225" y="1032" class="table-cell">Alerta baixo</text><text x="1410" y="1032" class="table-cell">R$ 2.100.000,00</text><line x1="40" y1="1042" x2="1596" y2="1042" stroke="#eaecf0"/><rect x="36" y="1052" width="1568" height="42" fill="#ecfdf3" opacity="0.95"/><text x="44" y="1076" class="table-cell">12</text><text x="110" y="1076" class="table-cell">Mar Azul Serviços...</text><text x="330" y="1076" class="table-cell">5231102</text><text x="470" y="1076" class="table-cell">Serviços de manutenção e reparo de embarcações</text><text x="1010" y="1076" class="table-cell">4,60%</text><text x="1225" y="1076" class="table-cell">Alerta baixo</text><text x="1410" y="1076" class="table-cell">R$ 3.450.000,00</text><line x1="40" y1="1086" x2="1596" y2="1086" stroke="#eaecf0"/></svg>